<?xml version="1.0" standalone="no"?><!DOCTYPE svg PUBLIC "-//W3C//DTD SVG 1.1//EN" "http://www.w3.org/Graphics/SVG/1.1/DTD/svg11.dtd"><svg t="1664089170632" class="icon" viewBox="0 0 1024 1024" version="1.1" xmlns="http://www.w3.org/2000/svg" p-id="10608" xmlns:xlink="http://www.w3.org/1999/xlink" width="64" height="64"><path d="M428.312129 595.687871l-22.316138-22.316138c-80.114464-80.114464-80.114464-210.004745 0-290.119209L629.162078 60.086437c80.113287-80.113287 210.003568-80.113287 290.118032 0l44.632276 44.633453c80.114464 80.114464 80.114464 210.004745 0 290.118032L774.22286 584.529802c-12.144405 12.144405-25.434041 22.44914-39.520515 30.911853a253.911982 253.911982 0 0 0-2.538814-78.118253L919.281287 350.202115c55.463136-55.463136 55.463136-145.386814 0-200.851126l-44.633453-44.632276c-55.464313-55.464313-145.387991-55.464313-200.851126 0L450.629444 327.885977c-55.464313 55.463136-55.464313 145.386814 0 200.849949l22.316138 22.316138c12.325664 12.326841 12.325664 32.308966 0 44.63463-12.325664 12.325664-32.308966 12.325664-44.633453 0z m167.375742-167.375742l22.316138 22.316138c80.114464 80.114464 80.114464 210.004745 0 290.119209L394.837922 963.913563c-80.113287 80.113287-210.003568 80.113287-290.118032 0L60.086437 919.281287c-80.114464-80.114464-80.114464-210.004745 0-290.118032l189.69188-189.693057c12.144405-12.144405 25.434041-22.44914 39.520515-30.911853a253.911982 253.911982 0 0 0 2.538814 78.118253L104.718713 673.797885c-55.463136 55.463136-55.463136 145.386814 0 200.851126l44.633453 44.632276c55.464313 55.464313 145.387991 55.464313 200.851126 0l223.167264-223.167264c55.464313-55.463136 55.464313-145.386814 0-200.849949l-22.316138-22.316138c-12.325664-12.326841-12.325664-32.308966 0-44.63463 12.325664-12.325664 32.308966-12.325664 44.633453 0z" fill="#333333" p-id="10609"></path></svg>