<?xml version="1.0" standalone="no"?><!DOCTYPE svg PUBLIC "-//W3C//DTD SVG 1.1//EN" "http://www.w3.org/Graphics/SVG/1.1/DTD/svg11.dtd"><svg t="1664004037998" class="icon" viewBox="0 0 1024 1024" version="1.1" xmlns="http://www.w3.org/2000/svg" p-id="2051" width="64" height="64" xmlns:xlink="http://www.w3.org/1999/xlink"><path d="M625.777778 392.533333H398.222222c-34.133333 0-56.888889-22.755556-56.888889-56.888889s22.755556-56.888889 56.888889-56.888888h227.555556c34.133333 0 56.888889 22.755556 56.888889 56.888888s-22.755556 56.888889-56.888889 56.888889zM625.777778 614.4H398.222222c-34.133333 0-56.888889-22.755556-56.888889-56.888889s22.755556-56.888889 56.888889-56.888889h227.555556c34.133333 0 56.888889 22.755556 56.888889 56.888889s-22.755556 56.888889-56.888889 56.888889z" p-id="2052"></path><path d="M853.333333 113.777778v762.311111l-267.377777-130.844445c-22.755556-11.377778-51.2-17.066667-73.955556-17.066666s-51.2 5.688889-73.955556 17.066666L170.666667 876.088889V113.777778h682.666666m0-113.777778H170.666667C108.088889 0 56.888889 51.2 56.888889 113.777778v853.333333c0 34.133333 28.444444 56.888889 56.888889 56.888889 5.688889 0 17.066667 0 22.755555-5.688889l347.022223-170.666667c5.688889-5.688889 17.066667-5.688889 22.755555-5.688888s17.066667 0 22.755556 5.688888l347.022222 170.666667c17.066667 5.688889 28.444444 5.688889 34.133333 5.688889 28.444444 0 56.888889-22.755556 56.888889-56.888889V113.777778c0-62.577778-51.2-113.777778-113.777778-113.777778z" p-id="2053"></path></svg>