<?xml version="1.0" standalone="no"?><!DOCTYPE svg PUBLIC "-//W3C//DTD SVG 1.1//EN" "http://www.w3.org/Graphics/SVG/1.1/DTD/svg11.dtd"><svg t="1665230149130" class="icon" viewBox="0 0 1024 1024" version="1.1" xmlns="http://www.w3.org/2000/svg" p-id="2053" xmlns:xlink="http://www.w3.org/1999/xlink" width="64" height="64"><path d="M895.833992 1023.557311c-12.794466 0-22.390316-3.198617-35.184783-9.595849l-351.847826-220.704546-345.450592 220.704546c-19.1917 12.794466-44.780632 12.794466-63.972332 3.198616-19.1917-12.794466-31.986166-31.986166-31.986166-57.575099V63.972332c0-35.184783 28.787549-63.972332 63.972332-63.972332h767.667983c35.184783 0 63.972332 28.787549 63.972332 63.972332v895.612647c0 22.390316-12.794466 44.780632-31.986166 57.575099-12.794466 3.198617-25.588933 6.397233-35.184782 6.397233z m0-63.972332V63.972332H128.166008v895.612647l348.649209-220.704545c19.1917-12.794466 47.979249-12.794466 67.170949 0L895.833992 959.584979z" p-id="2054" fill="#2c2c2c"></path><path d="M735.903162 319.86166H288.096838c-19.1917 0-31.986166-12.794466-31.986166-31.986166s12.794466-31.986166 31.986166-31.986166h447.806324c19.1917 0 31.986166 12.794466 31.986166 31.986166s-12.794466 31.986166-31.986166 31.986166zM735.903162 511.778656H288.096838c-19.1917 0-31.986166-12.794466-31.986166-31.986166s12.794466-31.986166 31.986166-31.986166h447.806324c19.1917 0 31.986166 12.794466 31.986166 31.986166s-12.794466 31.986166-31.986166 31.986166z" p-id="2055" fill="#2c2c2c"></path></svg>