<?xml version="1.0" standalone="no"?><!DOCTYPE svg PUBLIC "-//W3C//DTD SVG 1.1//EN" "http://www.w3.org/Graphics/SVG/1.1/DTD/svg11.dtd"><svg t="1664112293497" class="icon" viewBox="0 0 1024 1024" version="1.1" xmlns="http://www.w3.org/2000/svg" p-id="3135" xmlns:xlink="http://www.w3.org/1999/xlink" width="64" height="64"><path d="M761.61061 291.378506c-9.413135 0-18.204364 3.626784-24.845082 10.262471L459.729123 578.861539 327.677545 446.738513c-6.641725-6.641725-15.432953-10.268509-24.845082-10.268509-9.34068 0-18.132915 3.626784-24.77464 10.268509-6.641725 6.642731-10.268509 15.432953-10.268509 24.77464 0 9.345712 3.626784 18.13694 10.268509 24.778665l156.898673 157.020438c6.641725 6.580339 15.432953 10.268509 24.773634 10.268509 9.35175 0 18.142978-3.68817 24.845082-10.268509l301.809033-302.054575c6.642731-6.576314 10.268509-15.366536 10.268509-24.77464 0-9.346718-3.626784-18.259712-10.268509-24.841057C779.742519 295.00529 770.951291 291.378506 761.61061 291.378506zM773.100794 94.579168l-2.027739 0c-109.742427 0-201.841011-12.483424-259.26476-78.142911-57.366389 65.659488-149.89266 78.142911-260.06378 78.142911C76.277191 94.579168 71.467978 270.042468 71.467978 270.042468c0 98.063054-0.061386 191.573508-0.061386 394.215551 0 113.735512 272.008821 321.109281 420.604332 356.400992 12.726954 3.008903 25.705488 3.008903 38.429422 0.061386 149.70649-35.048181 421.449642-241.31097 421.449642-356.401998L951.889989 270.103854C951.889989 142.22348 889.485952 94.579168 773.100794 94.579168zM888.935494 664.318399c0 65.293187-215.615546 247.458591-353.329697 289.998838-15.800261 4.859529-32.894652 4.859529-48.635539 0C349.131322 911.594845 134.362093 729.422397 134.362093 664.259026l-0.906696-267.93523 0.906696-124.248558c0.366301-11.684404 6.10133-114.54057 117.383429-114.54057 92.832193 0 186.958516-7.930823 260.06378-57.6069 73.039853 49.676076 167.166176 57.6069 261.291492 57.6069 88.778728 0 115.8347 26.3123 115.8347 112.569185L888.935494 664.318399z" p-id="3136"></path></svg>