<?xml version="1.0" standalone="no"?><!DOCTYPE svg PUBLIC "-//W3C//DTD SVG 1.1//EN" "http://www.w3.org/Graphics/SVG/1.1/DTD/svg11.dtd"><svg t="1664116682545" class="icon" viewBox="0 0 1024 1024" version="1.1" xmlns="http://www.w3.org/2000/svg" p-id="2586" xmlns:xlink="http://www.w3.org/1999/xlink" width="64" height="64"><path d="M927 864H96c-17.67 0-32 14.33-32 32s14.33 32 32 32h831c17.67 0 32-14.33 32-32s-14.33-32-32-32z" p-id="2587" fill="#1296db"></path><path d="M575.5 162c8.82 0 16 7.18 16 16v686h-355V178c0-8.82 7.18-16 16-16h323m0-64h-323c-44.18 0-80 35.82-80 80v750h483V178c0-44.18-35.82-80-80-80z" p-id="2588" fill="#1296db"></path><path d="M771.5 433c8.82 0 16 7.18 16 16v415h-132V433h116m0-64h-180v559h260V449c0-44.18-35.82-80-80-80zM508.75 325.5h-189.5c-17.67 0-32 14.33-32 32s14.33 32 32 32h189.5c17.67 0 32-14.33 32-32s-14.33-32-32-32zM508.75 471h-189.5c-17.67 0-32 14.33-32 32s14.33 32 32 32h189.5c17.67 0 32-14.33 32-32s-14.33-32-32-32zM508.75 616.5h-189.5c-17.67 0-32 14.33-32 32s14.33 32 32 32h189.5c17.67 0 32-14.33 32-32s-14.33-32-32-32z" p-id="2589" fill="#1296db"></path></svg>