<?xml version="1.0" standalone="no"?><!DOCTYPE svg PUBLIC "-//W3C//DTD SVG 1.1//EN" "http://www.w3.org/Graphics/SVG/1.1/DTD/svg11.dtd"><svg t="1664208002736" class="icon" viewBox="0 0 1088 1024" version="1.1" xmlns="http://www.w3.org/2000/svg" p-id="2764" xmlns:xlink="http://www.w3.org/1999/xlink" width="68" height="64"><path d="M1020.138667 955.84c11.093333 0 21.397333-0.042667 31.68 0 21.226667 0.128 36.202667 14.229333 36.181333 34.048 0 19.669333-15.274667 34.090667-36.266667 34.090667H36.352c-18.986667 0-33.472-11.456-35.925333-28.266667-2.645333-17.984 7.253333-33.92 24.362666-38.613333 3.776-1.024 7.872-1.152 11.84-1.216 10.069333-0.149333 20.138667-0.042667 31.36-0.042667v-10.069333V104.213333C67.989333 54.570667 99.498667 13.802667 146.773333 2.730667c8.149333-1.92 16.746667-2.602667 25.130667-2.602667C329.173333-0.021333 486.4-0.021333 643.648 0.042667c60.138667 0.042667 104.341333 44.693333 104.341333 105.301333 0.042667 280.042667 0.021333 560.085333 0.021334 840.128v9.770667h203.754666c0.128-2.346667 0.362667-4.842667 0.362667-7.338667V447.509333c0-24.064-13.717333-37.888-37.482667-37.930666-21.610667 0-43.242667 0.213333-64.853333-0.085334-17.877333-0.256-31.616-13.184-33.685333-30.976-1.856-16.042667 9.237333-31.914667 25.450666-36.053333 3.370667-0.853333 6.976-0.981333 10.474667-1.002667 21.632-0.085333 43.242667-0.085333 64.874667-0.042666 58.261333 0.149333 103.146667 45.034667 103.189333 103.658666 0.106667 167.04 0.042667 334.08 0.042667 501.098667v9.664z m-884.266667-0.448h543.914667c0.106667-2.730667 0.298667-5.013333 0.298666-7.317333V105.792c0-23.573333-13.824-37.525333-37.162666-37.525333-156.778667 0-313.557333 0-470.336 0.042666-3.712 0-7.573333 0.192-11.157334 1.109334-16.704 4.266667-25.578667 17.408-25.578666 37.418666V955.392z m271.744-545.813333c-33.6 0-67.2 0.149333-100.8-0.064-22.762667-0.128-38.314667-19.072-34.133333-41.066667 2.858667-15.146667 16.192-26.88 31.893333-26.922667 68.842667-0.170667 137.685333-0.213333 206.528 0 18.517333 0.064 32.64 15.210667 32.661333 33.813334a33.6 33.6 0 0 1-33.92 34.154666c-34.090667 0.256-68.16 0.085333-102.229333 0.085334z m-0.213333 273.173333c34.517333 0 69.077333-0.341333 103.616 0.128 24.746667 0.32 40.426667 26.581333 29.44 48.725333-6.613333 13.290667-17.856 19.306667-32.64 19.285334-66.496-0.064-132.992-0.021333-199.466667-0.021334l-2.837333-0.021333a34.197333 34.197333 0 0 1-33.706667-33.92 33.706667 33.706667 0 0 1 33.365333-34.112c34.069333-0.277333 68.138667-0.085333 102.208-0.064z m0.32-102.613333c-33.6 0-67.2 0.213333-100.8-0.085334-25.237333-0.213333-41.664-23.530667-32.661334-46.229333 5.589333-14.144 16.618667-21.802667 31.616-21.866667 67.904-0.256 135.808-0.277333 203.690667-0.021333 19.968 0.064 34.410667 15.296 34.197333 34.666667-0.213333 18.986667-14.656 33.301333-34.56 33.450666-33.813333 0.256-67.626667 0.064-101.482666 0.064z" fill="#016861" p-id="2765"></path></svg>