<?xml version="1.0" standalone="no"?><!DOCTYPE svg PUBLIC "-//W3C//DTD SVG 1.1//EN" "http://www.w3.org/Graphics/SVG/1.1/DTD/svg11.dtd"><svg t="1665135101730" class="icon" viewBox="0 0 1024 1024" version="1.1" xmlns="http://www.w3.org/2000/svg" p-id="2025" width="64" height="64" xmlns:xlink="http://www.w3.org/1999/xlink"><path d="M704.13 576.11c42.74 0 82.92 16.64 113.14 46.86s46.86 70.4 46.86 113.14-16.64 82.92-46.86 113.14-70.4 46.86-113.14 46.86-82.91-16.65-113.13-46.87-46.86-70.4-46.86-113.14 16.64-82.92 46.86-113.14c30.22-30.21 70.39-46.85 113.13-46.85m0-64c-123.71 0-224 100.29-224 224s100.29 224 224 224 224-100.29 224-224-100.29-224-224-224zM641.01 223.5h-362c-17.67 0-32 14.33-32 32s14.33 32 32 32h362c17.67 0 32-14.33 32-32s-14.33-32-32-32zM542.77 400.75H279.01c-17.67 0-32 14.33-32 32s14.33 32 32 32h263.76c17.67 0 32-14.33 32-32s-14.33-32-32-32zM369.76 578h-90.75c-17.67 0-32 14.33-32 32s14.33 32 32 32h90.75c17.67 0 32-14.33 32-32s-14.33-32-32-32z" p-id="2026" fill="#2c2c2c"></path><path d="M605.13 704.11c-17.67 0-32 14.33-32 32s14.33 32 32 32 32-14.33 32-32-14.32-32-32-32zM704.13 704.11c-17.67 0-32 14.33-32 32s14.33 32 32 32 32-14.33 32-32-14.32-32-32-32zM803.13 704.11c-17.67 0-32 14.33-32 32s14.33 32 32 32 32-14.33 32-32-14.32-32-32-32z" p-id="2027" fill="#2c2c2c"></path><path d="M411.42 960h-198.4c-61.76 0-112-50.24-112-112V176c0-61.76 50.24-112 112-112H707c61.76 0 112 50.24 112 112v242.21c0 17.67-14.33 32-32 32s-32-14.33-32-32V176c0-26.47-21.53-48-48-48H213.02c-26.47 0-48 21.53-48 48v672c0 26.47 21.53 48 48 48h198.4c17.67 0 32 14.33 32 32s-14.33 32-32 32z" p-id="2028" fill="#2c2c2c"></path></svg>