<?xml version="1.0" standalone="no"?><!DOCTYPE svg PUBLIC "-//W3C//DTD SVG 1.1//EN" "http://www.w3.org/Graphics/SVG/1.1/DTD/svg11.dtd"><svg t="1664031469779" class="icon" viewBox="0 0 1024 1024" version="1.1" xmlns="http://www.w3.org/2000/svg" p-id="1892" xmlns:xlink="http://www.w3.org/1999/xlink" width="64" height="64"><path d="M796.777143 1024H154.102857A115.965714 115.965714 0 0 1 38.262857 908.16V115.84A115.965714 115.965714 0 0 1 154.102857 0H796.777143a115.965714 115.965714 0 0 1 115.84 115.84v342.777143h-73.142857V115.84A42.742857 42.742857 0 0 0 796.777143 73.142857H154.102857A42.742857 42.742857 0 0 0 111.405714 115.84v792.32A42.742857 42.742857 0 0 0 154.102857 950.857143H796.777143a42.742857 42.742857 0 0 0 42.697143-42.697143V640.56h73.142857v267.6A115.965714 115.965714 0 0 1 796.777143 1024z" fill="#333333" p-id="1893"></path><path d="M474.605714 657.874286H208.925714a36.571429 36.571429 0 0 1 0-73.142857H474.605714a36.571429 36.571429 0 0 1 0 73.142857zM328.285714 804.365714H208.925714a36.571429 36.571429 0 0 1 0-73.142857h119.36a36.571429 36.571429 0 1 1 0 73.142857zM527.531429 921.748571a36.571429 36.571429 0 0 1-36.045715-42.777142c0.171429-0.971429 16.685714-96.982857 20.902857-121.92a36.571429 36.571429 0 0 1 10.205715-19.771429L816.457143 443.428571c12.754286-12.765714 30.971429-18.514286 49.977143-15.782857A75.234286 75.234286 0 0 1 908.4 449.142857l55.108571 55.108572A75.28 75.28 0 0 1 985.074286 546.285714c2.72 18.994286-3.028571 37.211429-15.782857 49.965715L675.417143 890.114286a36.571429 36.571429 0 0 1-18.525714 9.965714c-25.52 5.222857-119.497143 20.571429-123.485715 21.188571a36.365714 36.365714 0 0 1-5.874285 0.48z m55.017142-140.994285c-2.628571 15.428571-6.617143 38.72-10.285714 59.954285 21.211429-3.565714 44.377143-7.508571 59.36-10.285714L908.925714 553.142857l-49.382857-49.371428z" fill="#333333" p-id="1894"></path><path d="M219.222857 182.537143m36.16 0l0 0q36.16 0 36.16 36.16l0 220.228571q0 36.16-36.16 36.16l0 0q-36.16 0-36.16-36.16l0-220.228571q0-36.16 36.16-36.16Z" fill="#333333" p-id="1895"></path><path d="M420.274286 255.68a18.285714 18.285714 0 0 1 18.285714 18.285714v109.622857a18.32 18.32 0 1 1-36.64 0v-109.588571a18.285714 18.285714 0 0 1 18.285714-18.285714m0-73.142857a91.428571 91.428571 0 0 0-91.428571 91.428571v109.622857a91.462857 91.462857 0 0 0 182.925714 0v-109.622857a91.428571 91.428571 0 0 0-91.428571-91.428571zM639.302857 255.68a18.285714 18.285714 0 0 1 18.285714 18.285714v109.622857a18.32 18.32 0 1 1-36.64 0v-109.588571a18.285714 18.285714 0 0 1 18.285715-18.285714m0-73.142857a91.428571 91.428571 0 0 0-91.428572 91.428571v109.622857a91.428571 91.428571 0 0 0 91.428572 91.428572 91.428571 91.428571 0 0 0 91.428571-91.428572v-109.622857a91.428571 91.428571 0 0 0-91.428571-91.428571z" fill="#333333" p-id="1896"></path></svg>